<svg width="80" height="80" viewBox="0 0 80 80" fill="none" xmlns="http://www.w3.org/2000/svg">
<path d="M31.0153 19.2478C31.1325 18.6667 31.1325 18.0465 31.3083 17.4947H55.3349C55.7305 18.7156 55.9942 20.0048 55.9942 21.3575C55.9942 28.3604 50.3245 34.0252 43.3363 34.0252C37.7105 34.0252 32.9687 30.3333 31.3181 25.2545C32.6903 23.4134 32.5146 20.9277 31.0153 19.2478ZM22.7135 75.0852H28.8667L28.6615 68.2484L22.7135 75.0852ZM64.2911 47.2008C65.2092 49.0662 66.6939 63.4674 67.7975 75.0852H59.1245L57.3226 56.4597L56.7415 75.0852H29.9312L29.3549 56.4597C29.3549 56.4597 29.228 53.9935 28.7787 51.7667L7.05706 51.508C5.63596 51.4884 4.33698 50.6582 3.74128 49.369C3.10151 48.0846 3.30659 46.5463 4.20518 45.4427L5.50909 43.8312C5.61167 43.5674 5.77768 43.3233 5.95354 43.0986L24.6376 20.0488C25.9121 18.4372 28.2757 18.198 29.8628 19.4969C31.4646 20.7861 31.7136 23.1253 30.4147 24.727V24.7514L17.791 40.4323L31.3865 38.5375C31.4159 38.5326 31.4549 38.5521 31.4842 38.5424C34.2287 37.5315 37.6861 36.9894 42.1203 36.9894H44.5572C56.3653 36.9894 61.1804 40.8522 64.2911 47.2007V47.2008ZM56.8244 40.4909C55.4033 39.7291 53.7332 39.1138 51.7212 38.7084L31.4792 74.9142H37.5738L56.8244 40.4909ZM53.196 4.86118H33.4474L31.3084 15.5414H55.335L53.196 4.86118H53.196ZM67.8707 33.9373L67.4508 33.5222L73.4818 27.4716L73.9262 27.8817L76.6219 25.1519L75.1715 23.7064L72.4417 26.4314L72.6273 26.6218L66.606 32.6675L65.3265 31.4027L63.339 29.4152L62.3671 30.3773L64.3889 32.3795L58.6509 38.1175L57.6987 37.7659L57.1518 38.2982C58.7975 39.1088 60.2332 40.1637 61.498 41.4382L67.8707 33.9373Z" fill="#F2C94C"/>
</svg>
