<svg width="129" height="133" viewBox="0 0 129 133" fill="none" xmlns="http://www.w3.org/2000/svg">
<circle cx="64" cy="64" r="62" fill="#F2F2F2" stroke="#4F4F4F" stroke-width="4"/>
<g clip-path="url(#clip0)">
<mask id="mask0" mask-type="alpha" maskUnits="userSpaceOnUse" x="4" y="4" width="120" height="120">
<circle cx="64" cy="64" r="60" fill="#C4C4C4"/>
</mask>
<g mask="url(#mask0)">
<path d="M65.0375 101.588L76.2 90.425L72.2875 86.5125H57.5L53.5875 90.425" fill="#242C24"/>
<path d="M55.8 78.175L74.05 80.3V99.0375L64.675 102.012L55.8 99.8875V78.175Z" fill="#FFDDB8"/>
<path d="M55.8 79.725H74.05V85.3625L55.8 96.3625V79.725Z" fill="#E5C6A5"/>
<path d="M76.2 99.35L64.9 103.262V97.125L76.2 90.425" fill="#486546"/>
<path d="M65.0125 13.975C65.0125 13.975 44.85 11.65 40.1625 26.25C35.475 40.85 31.5125 47.6875 31.4625 48C29.8875 50.5625 36.9375 61.95 43.8875 61.95H65.0125V13.975Z" fill="#324431"/>
<path d="M64.7625 14.125C64.7625 14.125 84.95 11.7875 89.6375 26.4375C94.325 41.075 98.3 47.9375 98.3375 48.25C99.9125 50.8125 92.85 62.2375 85.9 62.2375H64.7625V14.125Z" fill="#324431"/>
<path d="M43.7375 55.25C44.1625 48.9375 47.0875 41.6875 56.9375 37.6625C59.3125 38.2 64.2625 42.35 73.0625 38.225C79.05 35.425 86.575 47.8875 87.65 53.0125C88.5125 57.1125 86.8375 56.6875 89.6 55.8C90.225 55.3125 94.0625 51.825 87.65 26.4875C74.6625 15.45 65.5875 15.3375 65.5875 15.3375C65.5875 15.3375 48.825 15.6625 44.1 27.9C40.7875 39.6875 38.675 44.7 41.3125 54.7C42.7 51.2375 42.525 52.2 43.7375 55.25V55.25Z" fill="#5C3E31"/>
<path d="M43.8875 72.3375C48.125 80.475 57.575 86.3125 65.0375 85.9375V30.6875C51.8 30.6875 42.1875 43.075 42.1875 58.3625C42.175 63.5 41.7375 68.2125 43.8875 72.3375V72.3375Z" fill="#F5D4B1"/>
<path d="M86.2125 72.35C81.9625 80.5 72.5125 86.3375 65.0375 85.9625V30.6875C78.3 30.6875 87.925 43.075 87.925 58.3625C87.925 63.5 88.3625 68.225 86.2125 72.35Z" fill="#FFDDB8"/>
<path d="M94.2375 50.55C96.3375 55.4375 87.525 59.725 87.525 59.725H85.9125C85.9125 59.725 86.575 60.6375 86.825 61.95H87.5375C95.0625 61.95 99.8 50.6 98.225 48.0375C98.175 47.725 94.2125 40.9 89.525 26.3375C84.8375 11.775 64.65 13.2625 64.65 13.2625L64.375 48.325C81.4125 48.7625 89.525 42.6875 94.2375 50.55V50.55Z" fill="#486546"/>
<path d="M35.45 50.5125C34.775 55.7375 42.1625 59.7125 42.1625 59.7125H43.775C43.775 59.7125 43.1125 60.625 42.8625 61.95H42.15C34.6375 61.95 29.9 50.5625 31.475 48C31.525 47.6875 35.4875 40.8375 40.175 26.25C44.85 11.65 65.0125 13.15 65.0125 13.15L64.7375 48.3C48.5875 48.6625 36.6375 41.425 35.45 50.5125V50.5125Z" fill="#475E46"/>
<path d="M53.5875 90.425V99.3625L64.8875 103.275V97.125L53.5875 90.425V90.425Z" fill="#324431"/>
<path d="M65.0375 124.2H99.0875C99.0875 124.2 97.4 100.563 74.25 96.875C67.95 96.4125 65.175 96.6 65.175 96.6V96.625H65.0375V124.2Z" fill="#486546"/>
<path d="M65.0375 124.2H30.975C30.975 124.2 32.6625 100.525 55.8125 96.85C62.1125 96.3875 64.8875 96.575 64.8875 96.575V96.6H65.025L65.0375 124.2V124.2Z" fill="#324431"/>
<path d="M39.9875 51.7C38.5 52.2125 38.075 54.9625 39.025 57.85C39.9875 60.7375 41.975 62.6625 43.4625 62.15C44.95 61.6375 45.375 58.8875 44.425 56C43.4625 53.1125 41.475 51.1875 39.9875 51.7Z" fill="#F5D4B1"/>
<path d="M90.625 51.825C92.1125 52.325 92.5375 55.0375 91.5875 57.8875C90.625 60.7375 88.6375 62.6375 87.15 62.1375C85.6625 61.6375 85.2375 58.925 86.1875 56.075C87.15 53.225 89.125 51.3125 90.625 51.825Z" fill="#FFDDB8"/>
<path d="M67.6875 100.3C67.6875 100.864 67.9114 101.404 68.3099 101.803C68.7084 102.201 69.2489 102.425 69.8125 102.425C70.3761 102.425 70.9166 102.201 71.3151 101.803C71.7136 101.404 71.9375 100.864 71.9375 100.3C71.9375 99.7364 71.7136 99.1959 71.3151 98.7974C70.9166 98.3989 70.3761 98.175 69.8125 98.175C69.2489 98.175 68.7084 98.3989 68.3099 98.7974C67.9114 99.1959 67.6875 99.7364 67.6875 100.3Z" fill="#324431"/>
<path d="M67.6875 109.212C67.6875 109.776 67.9114 110.317 68.3099 110.715C68.7084 111.114 69.2489 111.337 69.8125 111.337C70.3761 111.337 70.9166 111.114 71.3151 110.715C71.7136 110.317 71.9375 109.776 71.9375 109.212C71.9375 108.649 71.7136 108.108 71.3151 107.71C70.9166 107.311 70.3761 107.087 69.8125 107.087C69.2489 107.087 68.7084 107.311 68.3099 107.71C67.9114 108.108 67.6875 108.649 67.6875 109.212Z" fill="#324431"/>
<path d="M67.6875 117.7C67.6875 118.264 67.9114 118.804 68.3099 119.203C68.7084 119.601 69.2489 119.825 69.8125 119.825C70.3761 119.825 70.9166 119.601 71.3151 119.203C71.7136 118.804 71.9375 118.264 71.9375 117.7C71.9375 117.136 71.7136 116.596 71.3151 116.197C70.9166 115.799 70.3761 115.575 69.8125 115.575C69.2489 115.575 68.7084 115.799 68.3099 116.197C67.9114 116.596 67.6875 117.136 67.6875 117.7Z" fill="#324431"/>
</g>
</g>
<defs>
<clipPath id="clip0">
<rect width="128" height="128" fill="white" transform="translate(1 5)"/>
</clipPath>
</defs>
</svg>
