<svg width="129" height="140" viewBox="0 0 129 140" fill="none" xmlns="http://www.w3.org/2000/svg">
<circle cx="64" cy="64" r="62" fill="#F2F2F2" stroke="#4F4F4F" stroke-width="4"/>
<g clip-path="url(#clip0)">
<mask id="mask0" mask-type="alpha" maskUnits="userSpaceOnUse" x="4" y="4" width="120" height="120">
<circle cx="64" cy="64" r="60" fill="#C4C4C4"/>
</mask>
<g mask="url(#mask0)">
<path d="M64.1271 90L74 79.6335L70.5395 76H57.4605L54 79.6335" fill="#242C24"/>
<path d="M56 68L72 69.9612V87.2543L63.7808 90L56 88.0388V68Z" fill="#FFDDB8"/>
<path d="M56 70H72V75.0826L56 85V70Z" fill="#E5C6A5"/>
<path d="M74 87.3427L64 91V85.2629L74 79" fill="#486546"/>
<path d="M64 10.1213C64 10.1213 45.4929 8.04323 41.1903 21.0923C36.8876 34.1414 33.2505 40.2526 33.2046 40.5319C31.7589 42.8222 38.23 53 44.6094 53H64V10.1213Z" fill="#324431"/>
<path d="M64 10.1247C64 10.1247 82.5165 7.99311 86.816 21.3529C91.1155 34.7013 94.7615 40.9594 94.7959 41.2444C96.2405 43.5812 89.7626 54 83.3879 54H64V10.1247Z" fill="#324431"/>
<path d="M44.3189 46.973C44.7092 41.2836 47.395 34.7492 56.4396 31.1215C58.6205 31.6059 63.1657 35.3463 71.2462 31.6284C76.7442 29.1048 83.6539 40.3372 84.641 44.9564C85.433 48.6517 83.8949 48.2686 86.4316 47.4687C87.0055 47.0294 90.5292 43.8861 84.641 21.0495C72.7154 11.1014 64.3824 11 64.3824 11C64.3824 11 48.9904 11.2929 44.6518 22.3225C41.6101 32.9466 39.6703 37.4643 42.0922 46.4773C43.3662 43.3566 43.2056 44.2241 44.3189 46.973V46.973Z" fill="#5C3E31"/>
<path d="M44.6003 62.6807C48.4871 70.0426 57.1551 75.3238 64 74.9845V25C51.858 25 43.041 36.2069 43.041 50.0375C43.0295 54.6854 42.6282 58.9488 44.6003 62.6807V62.6807Z" fill="#F5D4B1"/>
<path d="M83.3977 62.6749C79.5044 70.0449 70.8476 75.3237 64 74.9845V25C76.1493 25 84.9665 36.2019 84.9665 50.0262C84.9665 54.672 85.3672 58.9447 83.3977 62.6749Z" fill="#FFDDB8"/>
<path d="M90.9808 42.7066C92.9485 47.1197 84.6913 50.991 84.6913 50.991H83.1804C83.1804 50.991 83.8011 51.8149 84.0354 53H84.703C91.7538 53 96.1928 42.7518 94.7171 40.438C94.6702 40.1558 90.9574 33.9933 86.5653 20.8444C82.1731 7.69554 63.2577 9.03865 63.2577 9.03865L63 40.6976C78.9639 41.0926 86.5653 35.6073 90.9808 42.7066V42.7066Z" fill="#486546"/>
<path d="M36.9181 42.6967C36.2997 47.4036 43.0674 50.9844 43.0674 50.9844H44.5445C44.5445 50.9844 43.9376 51.8064 43.7086 53H43.0559C36.1738 53 31.8338 42.7417 33.2766 40.4334C33.3224 40.1518 36.9525 33.9811 41.2466 20.8402C45.5293 7.68801 64 9.03926 64 9.03926L63.7481 40.7036C48.9532 41.0302 38.006 34.5104 36.9181 42.6967V42.6967Z" fill="#475E46"/>
<path d="M54 79V87.3463L64 91V85.2568L54 79V79Z" fill="#324431"/>
<path d="M64 110H95C95 110 93.4637 88.6183 72.3873 85.2828C66.6516 84.8644 64.1252 85.034 64.1252 85.034V85.0566H64V110Z" fill="#486546"/>
<path d="M64 110H33C33 110 34.5358 88.6038 55.6044 85.2825C61.338 84.8645 63.8635 85.034 63.8635 85.034V85.0566H63.9886L64 110V110Z" fill="#324431"/>
<path d="M41.3741 44.0778C39.9822 44.5606 39.5845 47.1512 40.4735 49.8714C41.3741 52.5915 43.2339 54.405 44.6259 53.9222C46.0178 53.4394 46.4155 50.8488 45.5265 48.1286C44.6259 45.4085 42.7661 43.595 41.3741 44.0778Z" fill="#F5D4B1"/>
<path d="M87.6259 44.0793C89.0178 44.5566 89.4155 47.146 88.5265 49.8667C87.6259 52.5873 85.7661 54.4011 84.3741 53.9238C82.9822 53.4465 82.5845 50.8571 83.4735 48.1364C84.3741 45.4158 86.2222 43.5901 87.6259 44.0793Z" fill="#FFDDB8"/>
<path d="M66 88C66 88.5304 66.2107 89.0391 66.5858 89.4142C66.9609 89.7893 67.4696 90 68 90C68.5304 90 69.0391 89.7893 69.4142 89.4142C69.7893 89.0391 70 88.5304 70 88C70 87.4696 69.7893 86.9609 69.4142 86.5858C69.0391 86.2107 68.5304 86 68 86C67.4696 86 66.9609 86.2107 66.5858 86.5858C66.2107 86.9609 66 87.4696 66 88Z" fill="#324431"/>
<path d="M66 96.5C66 96.8978 66.2107 97.2794 66.5858 97.5607C66.9609 97.842 67.4696 98 68 98C68.5304 98 69.0391 97.842 69.4142 97.5607C69.7893 97.2794 70 96.8978 70 96.5C70 96.1022 69.7893 95.7206 69.4142 95.4393C69.0391 95.158 68.5304 95 68 95C67.4696 95 66.9609 95.158 66.5858 95.4393C66.2107 95.7206 66 96.1022 66 96.5Z" fill="#324431"/>
<path d="M66 104C66 104.53 66.2107 105.039 66.5858 105.414C66.9609 105.789 67.4696 106 68 106C68.5304 106 69.0391 105.789 69.4142 105.414C69.7893 105.039 70 104.53 70 104C70 103.47 69.7893 102.961 69.4142 102.586C69.0391 102.211 68.5304 102 68 102C67.4696 102 66.9609 102.211 66.5858 102.586C66.2107 102.961 66 103.47 66 104Z" fill="#324431"/>
<rect x="64" y="109" width="31" height="21" fill="#486546"/>
<rect x="33" y="109" width="31" height="21" fill="#324431"/>
</g>
</g>
<defs>
<clipPath id="clip0">
<rect width="128" height="128" fill="white" transform="translate(1 5)"/>
</clipPath>
</defs>
</svg>
