<?xml version="1.0" standalone="no"?><!DOCTYPE svg PUBLIC "-//W3C//DTD SVG 1.1//EN" "http://www.w3.org/Graphics/SVG/1.1/DTD/svg11.dtd"><svg t="1568675586454" class="icon" viewBox="0 0 1024 1024" version="1.1" xmlns="http://www.w3.org/2000/svg" p-id="4203" xmlns:xlink="http://www.w3.org/1999/xlink" width="128" height="128"><defs><style type="text/css"></style></defs><path d="M512.3 772.7l89.3-89.3-31.3-31.3H452l-31.3 31.3" fill="#242C24" p-id="4204"></path><path d="M438.4 585.4l146 17v149.9l-75 23.8-71-17V585.4z" fill="#FFDDB8" p-id="4205"></path><path d="M438.4 597.8h146v45.1l-146 88V597.8z" fill="#E5C6A5" p-id="4206"></path><path d="M601.6 754.8l-90.4 31.3V737l90.4-53.6" fill="#486546" p-id="4207"></path><path d="M512.1 71.8S350.8 53.2 313.3 170s-69.2 171.5-69.6 174c-12.6 20.5 43.8 111.6 99.4 111.6h169V71.8z" fill="#324431" p-id="4208"></path><path d="M510.1 73s161.5-18.7 199 98.5c37.5 117.1 69.3 172 69.6 174.5 12.6 20.5-43.9 111.9-99.5 111.9H510.1V73z" fill="#324431" p-id="4209"></path><path d="M341.9 402c3.4-50.5 26.8-108.5 105.6-140.7 19 4.3 58.6 37.5 129 4.5 47.9-22.4 108.1 77.3 116.7 118.3 6.9 32.8-6.5 29.4 15.6 22.3 5-3.9 35.7-31.8-15.6-234.5-103.9-88.3-176.5-89.2-176.5-89.2s-134.1 2.6-171.9 100.5c-26.5 94.3-43.4 134.4-22.3 214.4 11.1-27.7 9.7-20 19.4 4.4z" fill="#5C3E31" p-id="4210"></path><path d="M343.1 538.7c33.9 65.1 109.5 111.8 169.2 108.8v-442c-105.9 0-182.8 99.1-182.8 221.4-0.1 41.1-3.6 78.8 13.6 111.8z" fill="#F5D4B1" p-id="4211"></path><path d="M681.7 538.8c-34 65.2-109.6 111.9-169.4 108.9V205.5c106.1 0 183.1 99.1 183.1 221.4 0 41.1 3.5 78.9-13.7 111.9z" fill="#FFDDB8" p-id="4212"></path><path d="M745.9 364.4c16.8 39.1-53.7 73.4-53.7 73.4h-12.9s5.3 7.3 7.3 17.8h5.7c60.2 0 98.1-90.8 85.5-111.3-0.4-2.5-32.1-57.1-69.6-173.6s-199-104.6-199-104.6L507 346.6c136.3 3.5 201.2-45.1 238.9 17.8z" fill="#486546" p-id="4213"></path><path d="M275.6 364.1c-5.4 41.8 53.7 73.6 53.7 73.6h12.9s-5.3 7.3-7.3 17.9h-5.7c-60.1 0-98-91.1-85.4-111.6 0.4-2.5 32.1-57.3 69.6-174C350.8 53.2 512.1 65.2 512.1 65.2l-2.2 281.2c-129.2 2.9-224.8-55-234.3 17.7z" fill="#475E46" p-id="4214"></path><path d="M420.7 683.4v71.5l90.4 31.3V737l-90.4-53.6z" fill="#324431" p-id="4215"></path><path d="M512.3 953.6h272.4S771.2 764.5 586 735c-50.4-3.7-72.6-2.2-72.6-2.2v0.2h-1.1v220.6z" fill="#486546" p-id="4216"></path><path d="M512.3 953.6H239.8s13.5-189.4 198.7-218.8c50.4-3.7 72.6-2.2 72.6-2.2v0.2h1.1l0.1 220.8z" fill="#324431" p-id="4217"></path><path d="M311.9 373.6c-11.9 4.1-15.3 26.1-7.7 49.2 7.7 23.1 23.6 38.5 35.5 34.4s15.3-26.1 7.7-49.2c-7.7-23.1-23.6-38.5-35.5-34.4z" fill="#F5D4B1" p-id="4218"></path><path d="M717 374.6c11.9 4 15.3 25.7 7.7 48.5-7.7 22.8-23.6 38-35.5 34s-15.3-25.7-7.7-48.5c7.7-22.8 23.5-38.1 35.5-34z" fill="#FFDDB8" p-id="4219"></path><path d="M550.5 762.4m-17 0a17 17 0 1 0 34 0 17 17 0 1 0-34 0Z" fill="#324431" p-id="4220"></path><path d="M550.5 833.7m-17 0a17 17 0 1 0 34 0 17 17 0 1 0-34 0Z" fill="#324431" p-id="4221"></path><path d="M550.5 901.6m-17 0a17 17 0 1 0 34 0 17 17 0 1 0-34 0Z" fill="#324431" p-id="4222"></path></svg>