<svg width="100" height="100" viewBox="0 0 100 100" fill="none" xmlns="http://www.w3.org/2000/svg">
<path d="M89.0332 37.6396L93.1665 26.1285H73.0225C73.0225 24.595 62.7148 20.4033 49.9998 20.4033C37.285 20.4033 26.9771 24.5951 26.9771 26.1285H6.8335L10.9668 37.6395H26.9772V40.5175H12.0001L16.1334 52.0284H26.9772V54.9063H17.1667L21.3 66.4174H26.9772L49.9021 79.5967L72.8267 66.4174H78.6998L82.8329 54.9063H73.0224V52.0284H83.8665L87.9996 40.5174H73.0225V37.6396H89.0332ZM59.8988 56.4284L51.4392 51.9809L42.9794 56.4284L44.5951 47.0085L37.7512 40.3371L47.2094 38.9628L51.4392 30.3922L55.6691 38.9628L65.1273 40.3371L58.2833 47.0084L59.8988 56.4284Z" fill="#F2C94C"/>
</svg>
